<svg width="40" height="26" viewBox="0 0 40 26" fill="none" xmlns="http://www.w3.org/2000/svg">
<path d="M2.5334 0H37.5063C37.957 0.00918945 38.3857 0.196793 38.6979 0.521973C39.0102 0.847152 39.1804 1.28316 39.1713 1.73389V23.4082C39.1804 23.8589 39.0102 24.2944 38.6979 24.6196C38.3857 24.9448 37.957 25.1329 37.5063 25.1421H2.5334C2.08268 25.1329 1.65399 24.9448 1.34175 24.6196C1.02951 24.2944 0.859249 23.8589 0.868359 23.4082V1.73389C0.859249 1.28316 1.02951 0.847152 1.34175 0.521973C1.65399 0.196793 2.08268 0.00918945 2.5334 0Z" fill="#5870BE"/>
<path d="M17.6234 12.5668C17.6238 10.791 18.1507 9.05527 19.1375 7.57897C20.1244 6.10266 21.5268 4.95214 23.1674 4.27282C24.8081 3.59349 26.6134 3.41596 28.3549 3.76256C30.0965 4.10916 31.6963 4.96437 32.9519 6.22008C34.2074 7.4758 35.0625 9.07561 35.4089 10.8172C35.7553 12.5589 35.5774 14.3642 34.8979 16.0047C34.2184 17.6453 33.0678 19.0474 31.5914 20.034C30.115 21.0207 28.3791 21.5475 26.6034 21.5477C25.424 21.5477 24.2562 21.3155 23.1666 20.8641C22.077 20.4128 21.087 19.7513 20.2531 18.9173C19.4193 18.0834 18.7578 17.0934 18.3066 16.0038C17.8554 14.9142 17.6233 13.7461 17.6234 12.5668Z" fill="#FFAF38"/>
<path d="M12.8443 21.5459C11.3132 21.5457 9.80762 21.1541 8.47052 20.4082C7.13342 19.6623 6.00924 18.5868 5.20477 17.2841C4.40031 15.9814 3.94228 14.4949 3.87421 12.9653C3.80613 11.4357 4.1303 9.9139 4.81586 8.54487C5.50142 7.17585 6.52564 6.00524 7.7912 5.14351C9.05675 4.28178 10.5216 3.75772 12.0466 3.62153C13.5716 3.48535 15.1061 3.74133 16.5043 4.36519C17.9026 4.98904 19.1181 5.9601 20.0353 7.18599H18.8354V7.78609H20.4483C20.5693 7.97709 20.6834 8.17495 20.7894 8.37495H18.2353V8.97505H21.0783C21.1663 9.17505 21.2454 9.37515 21.3154 9.57515H17.6353V10.1748H21.5034C21.9895 11.9487 21.9225 13.829 21.3113 15.5639H17.6353V16.164H21.0743C20.9843 16.371 20.8874 16.5638 20.7894 16.7548H18.2353V17.3549H20.4413C20.3083 17.5649 20.1694 17.766 20.0284 17.955H18.8354V18.5551H19.5353C18.6926 19.4955 17.6612 20.2478 16.5084 20.7631C15.3555 21.2785 14.1071 21.545 12.8443 21.5459Z" fill="#E63737"/>
<path d="M2.99311 14.2188L3.53981 9.95883L4.38832 10.0677L5.00956 13.2134C5.0665 13.5062 5.10733 13.7251 5.13205 13.8701C5.20037 13.7213 5.30513 13.5034 5.44634 13.2163L6.84667 10.3832L7.6051 10.4805L7.0584 14.7405L6.515 14.6708L6.97258 11.1053L5.27711 14.5119L4.76859 14.4467L4.00191 10.662L3.5365 14.2886L2.99311 14.2188ZM9.96371 14.7264C9.74885 14.8662 9.54699 14.9585 9.35813 15.0032C9.1712 15.0481 8.97506 15.0574 8.76972 15.031C8.4307 14.9875 8.18071 14.8718 8.01974 14.6837C7.85902 14.4938 7.79519 14.2699 7.82826 14.0123C7.84765 13.8612 7.8992 13.728 7.98292 13.6127C8.06882 13.4957 8.17183 13.4066 8.29195 13.3452C8.414 13.284 8.54726 13.2431 8.69171 13.2222C8.79786 13.2083 8.9562 13.202 9.16672 13.2034C9.5955 13.2073 9.91413 13.1871 10.1226 13.143C10.1338 13.0715 10.1406 13.0261 10.143 13.0068C10.1704 12.7937 10.1403 12.6372 10.0527 12.5373C9.93415 12.402 9.74316 12.3174 9.4797 12.2836C9.23367 12.2521 9.04598 12.2723 8.91662 12.3443C8.78944 12.4146 8.68372 12.5556 8.59945 12.7673L8.09697 12.6319C8.17156 12.419 8.2707 12.2525 8.3944 12.1325C8.51835 12.0106 8.68566 11.9267 8.89634 11.8809C9.10726 11.8331 9.34542 11.8263 9.61082 11.8604C9.87428 11.8942 10.0844 11.9526 10.2411 12.0358C10.3978 12.1189 10.5088 12.2129 10.5741 12.3177C10.6397 12.4207 10.6787 12.5458 10.6913 12.6931C10.6973 12.7845 10.6854 12.9464 10.6556 13.1789L10.5661 13.8763C10.5037 14.3625 10.4748 14.6719 10.4795 14.8044C10.4863 14.9353 10.5151 15.064 10.5658 15.1906L10.0195 15.1205C9.97915 15.0051 9.96056 14.8737 9.96371 14.7264ZM10.07 13.5527C9.87024 13.6058 9.57701 13.6351 9.19035 13.6407C8.97134 13.6441 8.8148 13.6594 8.72071 13.6867C8.62662 13.714 8.55052 13.7623 8.49239 13.8317C8.43451 13.8991 8.39973 13.9783 8.38805 14.0694C8.37015 14.2088 8.40754 14.3318 8.50021 14.4382C8.59483 14.5449 8.74384 14.6112 8.94725 14.6373C9.14872 14.6632 9.33351 14.6426 9.50161 14.5756C9.66997 14.5066 9.80077 14.4003 9.89403 14.2567C9.96537 14.1458 10.0158 13.975 10.0454 13.7445L10.07 13.5527ZM11.1228 14.3258L11.6505 14.3108C11.6529 14.5218 11.7129 14.691 11.8305 14.8183C11.95 14.9459 12.1289 15.025 12.3671 15.0556C12.6074 15.0864 12.7918 15.0608 12.9205 14.9789C13.0494 14.895 13.1223 14.7872 13.1392 14.6555C13.1544 14.5373 13.115 14.4377 13.021 14.3567C12.9553 14.301 12.7846 14.2191 12.5091 14.1109C12.1379 13.9648 11.8822 13.8473 11.742 13.7584C11.604 13.6678 11.5042 13.5556 11.4426 13.4217C11.3832 13.286 11.3632 13.1427 11.3826 12.9916C11.4003 12.854 11.4475 12.7311 11.5244 12.6228C11.6035 12.5129 11.7023 12.4261 11.8207 12.3625C11.9098 12.3129 12.0267 12.2767 12.1714 12.2539C12.3183 12.2295 12.4721 12.2276 12.6329 12.2482C12.8751 12.2793 13.0827 12.3414 13.2559 12.4345C13.431 12.5278 13.5544 12.6402 13.6261 12.7715C13.6981 12.9008 13.7378 13.0674 13.7451 13.2711L13.2248 13.2752C13.2219 13.1134 13.17 12.9807 13.0691 12.8772C12.9701 12.7739 12.8189 12.7092 12.6155 12.6831C12.3753 12.6523 12.1987 12.67 12.0859 12.7362C11.973 12.8025 11.9097 12.8889 11.8961 12.9954C11.8874 13.0632 11.9008 13.127 11.9365 13.1867C11.9719 13.2484 12.0328 13.3034 12.1191 13.3519C12.1689 13.378 12.3172 13.4423 12.564 13.5449C12.9213 13.6912 13.1685 13.8056 13.3056 13.8882C13.4449 13.9691 13.5485 14.0749 13.6163 14.2057C13.6842 14.3365 13.7067 14.491 13.6839 14.6692C13.6615 14.8436 13.589 15.0017 13.4665 15.1435C13.3461 15.2836 13.1845 15.384 12.9818 15.4446C12.7793 15.5033 12.557 15.5171 12.3149 15.486C11.9139 15.4345 11.6185 15.312 11.4287 15.1183C11.2408 14.9248 11.1389 14.6606 11.1228 14.3258ZM15.3914 15.3344L15.4077 15.8061C15.2565 15.8182 15.1227 15.8168 15.0065 15.8019C14.8167 15.7775 14.6733 15.7286 14.5764 15.6551C14.4795 15.5816 14.4159 15.4937 14.3857 15.3914C14.3558 15.2871 14.361 15.0781 14.4012 14.7643L14.6291 12.9888L14.2455 12.9396L14.2977 12.5327L14.6813 12.582L14.7794 11.8177L15.3398 11.5706L15.2015 12.6487L15.7274 12.7162L15.6752 13.123L15.1492 13.0555L14.9177 14.8601C14.8985 15.0092 14.8949 15.1062 14.9069 15.1511C14.9208 15.1962 14.9465 15.234 14.9839 15.2644C15.0233 15.295 15.0817 15.3153 15.1592 15.3253C15.2174 15.3327 15.2947 15.3358 15.3914 15.3344ZM18.0858 15.1455L18.6177 15.2817C18.492 15.5866 18.3026 15.8114 18.0497 15.9561C17.7968 16.1009 17.4912 16.1503 17.1328 16.1043C16.6814 16.0464 16.3408 15.8619 16.1109 15.5508C15.8833 15.238 15.8016 14.8307 15.866 14.329C15.9326 13.8098 16.118 13.424 16.4222 13.1716C16.7263 12.9192 17.0915 12.8204 17.5177 12.8751C17.9303 12.928 18.2493 13.1117 18.4748 13.4262C18.7003 13.7407 18.7803 14.1526 18.715 14.6621C18.711 14.6931 18.704 14.7395 18.6942 14.8012L16.3927 14.5059C16.3686 14.8474 16.4312 15.1193 16.5805 15.3216C16.7297 15.5239 16.9332 15.6415 17.1909 15.6746C17.3827 15.6992 17.5528 15.6699 17.7014 15.5865C17.8499 15.5032 17.978 15.3562 18.0858 15.1455ZM16.477 14.0795L18.2001 14.3007C18.2102 14.0381 18.1693 13.835 18.0775 13.6913C17.9367 13.4684 17.7337 13.3399 17.4683 13.3059C17.2281 13.2751 17.0153 13.3295 16.83 13.4691C16.6466 13.609 16.529 13.8125 16.477 14.0795ZM19.1526 16.2926L19.5486 13.2066L20.0194 13.267L19.9593 13.7349C20.1075 13.5314 20.2365 13.4012 20.3462 13.3444C20.4578 13.2878 20.5746 13.2674 20.6967 13.283C20.8729 13.3057 21.0449 13.3848 21.2126 13.5206L20.9702 13.9827C20.852 13.8908 20.729 13.8366 20.6011 13.8202C20.4868 13.8055 20.3797 13.8272 20.2797 13.8853C20.1799 13.9414 20.1029 14.028 20.0485 14.145C19.9665 14.3236 19.9113 14.5232 19.883 14.7441L19.6756 16.3597L19.1526 16.2926ZM24.4382 15.4527L24.9837 15.6675C24.8061 16.1153 24.5476 16.4415 24.2083 16.6461C23.8711 16.8489 23.4807 16.9219 23.0371 16.865C22.578 16.8061 22.216 16.6651 21.9512 16.4421C21.6886 16.2174 21.5045 15.9181 21.3989 15.5441C21.2953 15.1705 21.2695 14.7802 21.3217 14.3734C21.3787 13.9298 21.5125 13.5541 21.7233 13.2464C21.9363 12.937 22.2097 12.7171 22.5435 12.5867C22.8794 12.4545 23.2353 12.4126 23.6112 12.4608C24.0374 12.5155 24.3818 12.67 24.6446 12.9243C24.9073 13.1785 25.0706 13.5096 25.1344 13.9175L24.5626 13.9771C24.5036 13.6544 24.3892 13.4103 24.2194 13.2448C24.0497 13.0793 23.8224 12.9782 23.5376 12.9417C23.2102 12.8997 22.9261 12.943 22.6851 13.0715C22.446 13.2004 22.2649 13.3918 22.1417 13.6457C22.0188 13.8977 21.9393 14.1642 21.9033 14.4451C21.8568 14.8074 21.8684 15.1308 21.9383 15.4155C22.0102 15.6984 22.1491 15.921 22.3547 16.0833C22.5603 16.2455 22.7929 16.3433 23.0525 16.3766C23.3683 16.4172 23.6473 16.3604 23.8896 16.2064C24.1319 16.0524 24.3147 15.8012 24.4382 15.4527ZM27.5035 16.9774C27.2886 17.1172 27.0867 17.2094 26.8979 17.2541C26.7109 17.299 26.5148 17.3083 26.3095 17.282C25.9704 17.2385 25.7205 17.1227 25.5595 16.9347C25.3988 16.7447 25.3349 16.5209 25.368 16.2632C25.3874 16.1121 25.439 15.9789 25.5227 15.8636C25.6086 15.7467 25.7116 15.6575 25.8317 15.5961C25.9537 15.535 26.087 15.494 26.2315 15.4732C26.3376 15.4592 26.4959 15.4529 26.7065 15.4544C27.1352 15.4582 27.4539 15.438 27.6624 15.3939C27.6735 15.3225 27.6803 15.2771 27.6828 15.2577C27.7101 15.0446 27.68 14.8881 27.5924 14.7883C27.4739 14.653 27.2829 14.5684 27.0194 14.5346C26.7734 14.503 26.5857 14.5232 26.4564 14.5952C26.3292 14.6655 26.2235 14.8066 26.1392 15.0183L25.6367 14.8829C25.7113 14.6699 25.8104 14.5035 25.9341 14.3835C26.0581 14.2615 26.2254 14.1777 26.4361 14.1318C26.647 14.0841 26.8852 14.0772 27.1506 14.1113C27.414 14.1451 27.6241 14.2036 27.7808 14.2867C27.9375 14.3698 28.0485 14.4638 28.1139 14.5687C28.1794 14.6716 28.2185 14.7968 28.2311 14.9441C28.2371 15.0354 28.2252 15.1973 28.1953 15.4298L28.1058 16.1272C28.0434 16.6135 28.0146 16.9229 28.0192 17.0554C28.026 17.1862 28.0548 17.315 28.1055 17.4416L27.5592 17.3715C27.5189 17.256 27.5003 17.1247 27.5035 16.9774ZM27.6098 15.8036C27.41 15.8568 27.1168 15.8861 26.7301 15.8916C26.5111 15.895 26.3545 15.9103 26.2605 15.9377C26.1664 15.965 26.0903 16.0133 26.0321 16.0826C25.9743 16.15 25.9395 16.2292 25.9278 16.3203C25.9099 16.4598 25.9473 16.5827 26.04 16.6891C26.1346 16.7958 26.2836 16.8622 26.487 16.8883C26.6885 16.9141 26.8733 16.8935 27.0414 16.8265C27.2097 16.7575 27.3405 16.6513 27.4338 16.5077C27.5051 16.3967 27.5556 16.2259 27.5852 15.9954L27.6098 15.8036ZM28.7477 17.524L29.1438 14.438L29.6145 14.4984L29.5545 14.9662C29.7027 14.7627 29.8316 14.6326 29.9413 14.5758C30.0529 14.5192 30.1698 14.4988 30.2918 14.5144C30.4681 14.537 30.6401 14.6162 30.8078 14.7519L30.5653 15.2141C30.4471 15.1221 30.3241 15.068 30.1963 15.0516C30.082 15.0369 29.9748 15.0586 29.8748 15.1166C29.7751 15.1728 29.698 15.2593 29.6436 15.3764C29.5616 15.5549 29.5064 15.7546 29.4781 15.9755L29.2708 17.5911L28.7477 17.524ZM32.7375 18.036L32.7874 17.6466C32.5525 17.9276 32.2452 18.0437 31.8655 17.995C31.6194 17.9634 31.4015 17.8665 31.2116 17.7043C31.0237 17.5424 30.8881 17.333 30.8048 17.0761C30.7238 16.8176 30.7036 16.5305 30.7441 16.2147C30.7836 15.9067 30.8707 15.6343 31.0055 15.3976C31.1405 15.1589 31.3192 14.986 31.5417 14.8786C31.7642 14.7713 32.0024 14.7339 32.2562 14.7665C32.4421 14.7904 32.6027 14.8513 32.7378 14.9494C32.8731 15.0456 32.9782 15.1624 33.0531 15.3L33.2493 13.7716L33.7694 13.8383L33.2227 18.0983L32.7375 18.036ZM31.2817 16.2837C31.2309 16.6789 31.2763 16.985 31.4178 17.2021C31.5593 17.4191 31.7434 17.5422 31.9701 17.5713C32.1986 17.6006 32.4043 17.5325 32.587 17.3669C32.7719 17.1996 32.889 16.9242 32.9382 16.5406C32.9924 16.1183 32.9508 15.7979 32.8135 15.5794C32.6761 15.3609 32.4883 15.2364 32.25 15.2058C32.0175 15.176 31.8106 15.2459 31.6294 15.4156C31.45 15.5856 31.3341 15.875 31.2817 16.2837Z" fill="white"/>
</svg>
