<svg width="39" height="26" viewBox="0 0 39 26" fill="none" xmlns="http://www.w3.org/2000/svg">
<path d="M1.71644 0.161133H36.4514C36.9002 0.173188 37.326 0.362146 37.6359 0.687012C37.9457 1.01188 38.1145 1.44616 38.1054 1.89502V23.5679C38.1145 24.0167 37.9457 24.451 37.6359 24.7759C37.326 25.1007 36.9002 25.2897 36.4514 25.3018H1.71644C1.26764 25.2897 0.841745 25.1007 0.531868 24.7759C0.22199 24.451 0.0532441 24.0167 0.0623851 23.5679V1.896C0.0529764 1.44696 0.221718 1.01258 0.531623 0.6875C0.841529 0.362418 1.26747 0.173187 1.71644 0.161133Z" fill="#F1F1F1"/>
<path d="M0.474373 24.7109C0.208756 24.3902 0.0640909 23.9863 0.0654371 23.5698V1.896C0.0560284 1.44696 0.224648 1.01258 0.534553 0.6875C0.844459 0.362418 1.2704 0.173187 1.71937 0.161133H36.4534C36.875 0.162079 37.2794 0.328593 37.5794 0.625L0.479378 24.7109H0.474373Z" fill="white" fill-opacity="0.73"/>
<path d="M14.7104 18.126L16.0104 15.776L15.2864 10.1319H17.0574L17.3434 13.4722L19.0764 10.1319H20.9044L16.6954 18.126H14.7104ZM9.15735 13.9102C9.43035 12.5362 10.7574 12.1002 12.7194 12.1002C12.8364 11.4892 12.4474 11.336 11.7854 11.359C11.2017 11.3872 10.6279 11.5204 10.0914 11.752L10.2463 10.379C10.8905 10.1788 11.5576 10.0614 12.2314 10.0299C13.4574 10.0079 14.8204 10.3993 14.5094 11.9923L13.7504 15.7423H11.9794L12.0953 15.1739C11.8898 15.386 11.6441 15.5554 11.3724 15.6715C11.1008 15.7875 10.8088 15.8482 10.5134 15.8502C9.67443 15.8462 8.92745 15.2998 9.15845 13.9058L9.15735 13.9102ZM10.9684 13.8228C10.9126 13.9018 10.881 13.9953 10.8772 14.0919C10.8734 14.1884 10.8977 14.2842 10.9471 14.3673C10.9965 14.4503 11.0689 14.5174 11.1555 14.5601C11.2422 14.6029 11.3395 14.6193 11.4354 14.608C11.6545 14.6177 11.8697 14.548 12.0415 14.4117C12.2133 14.2754 12.3301 14.0819 12.3704 13.8663C12.3935 13.6977 12.4269 13.5308 12.4703 13.3663H12.0223C11.8228 13.3478 11.6219 13.3794 11.4377 13.4586C11.2536 13.5377 11.0923 13.6614 10.9684 13.8189V13.8228ZM3.05737 15.7423L4.52136 8.5699H7.82837C8.12317 8.56728 8.41432 8.63551 8.67737 8.76863C8.94041 8.90174 9.16773 9.09595 9.34021 9.33503C9.51269 9.57412 9.62534 9.85105 9.6687 10.1427C9.71206 10.4343 9.68481 10.7319 9.58936 11.0108C9.49417 11.6667 9.16542 12.2661 8.66345 12.6988C8.16149 13.1315 7.52014 13.3688 6.85742 13.3663H5.47437L4.99939 15.7423H3.05737ZM5.75037 11.9923H6.6604C6.9266 11.971 7.17864 11.8635 7.37866 11.6866C7.57868 11.5097 7.71585 11.2724 7.76941 11.0108C7.81138 10.9032 7.82678 10.7873 7.81433 10.6724C7.80188 10.5576 7.76194 10.4473 7.69788 10.3511C7.63381 10.255 7.5475 10.1759 7.44629 10.1202C7.34507 10.0645 7.23184 10.0335 7.11633 10.0308H6.16638L5.75037 11.9923Z" fill="#3284AE"/>
<path d="M26.3744 13.9058C26.6504 12.5318 27.9913 12.0972 29.9803 12.0972C30.1183 11.4852 29.7244 11.334 29.0544 11.356C28.4583 11.3866 27.8718 11.5193 27.3204 11.748L27.4784 10.375C28.1382 10.1774 28.8195 10.0604 29.5074 10.0269C30.7484 10.0049 32.1074 10.3958 31.7924 11.9878L31.0244 15.7368H29.2513L29.3694 15.1709C28.9398 15.6 28.3585 15.8431 27.7513 15.8472C26.8933 15.8462 26.1374 15.3008 26.3744 13.9058ZM28.2074 13.8188C28.1535 13.9004 28.1242 13.996 28.123 14.0938C28.1219 14.1915 28.149 14.2873 28.201 14.3701C28.2531 14.4529 28.3277 14.5191 28.4163 14.5605C28.5048 14.602 28.6035 14.6171 28.7004 14.604C28.9182 14.6137 29.1321 14.5438 29.3024 14.4077C29.4727 14.2716 29.5878 14.0783 29.6263 13.8638C29.6653 13.6888 29.6854 13.5358 29.7264 13.3638H29.2933C29.0884 13.343 28.8815 13.3739 28.6914 13.4531C28.5013 13.5324 28.3339 13.6577 28.2043 13.8179L28.2074 13.8188ZM31.8434 15.7368L33.3094 8.54297H35.1294L33.6444 15.7368H31.8434ZM20.2744 15.7368L21.7365 8.56592H25.0364C25.3303 8.56512 25.6203 8.63441 25.8821 8.76807C26.1439 8.90172 26.3701 9.09592 26.5419 9.33447C26.7136 9.57302 26.826 9.84896 26.8698 10.1396C26.9135 10.4303 26.8873 10.7273 26.7933 11.0059C26.698 11.664 26.3674 12.2652 25.8627 12.6982C25.3579 13.1313 24.7133 13.3667 24.0483 13.3608H22.6854L22.1914 15.7358L20.2744 15.7368ZM22.9614 11.9878H23.8494C24.1177 11.9671 24.3723 11.8608 24.5753 11.6841C24.7783 11.5074 24.919 11.2698 24.9764 11.0068C25.0162 10.8977 25.0294 10.7808 25.0149 10.6655C25.0004 10.5503 24.9586 10.4401 24.8929 10.3442C24.8273 10.2484 24.7398 10.17 24.6376 10.1147C24.5354 10.0595 24.4215 10.0292 24.3054 10.0269H23.3574L22.9614 11.9878Z" fill="#3CA9C7"/>
</svg>
