<svg width="39" height="26" viewBox="0 0 39 26" fill="none" xmlns="http://www.w3.org/2000/svg">
<path d="M1.76939 0H36.7694C36.9927 0.00429082 37.213 0.052605 37.4177 0.14209C37.6224 0.231575 37.8074 0.360445 37.9623 0.521484C38.1171 0.682523 38.2386 0.87252 38.3199 1.08057C38.4013 1.28861 38.4409 1.51055 38.4364 1.73389V23.4082C38.4409 23.6315 38.4013 23.8535 38.3199 24.0615C38.2386 24.2696 38.1171 24.4596 37.9623 24.6206C37.8074 24.7816 37.6224 24.9105 37.4177 25C37.213 25.0895 36.9927 25.1378 36.7694 25.1421H1.76939C1.54604 25.1378 1.32576 25.0895 1.12107 25C0.916394 24.9105 0.731335 24.7816 0.576519 24.6206C0.421702 24.4596 0.300085 24.2696 0.218731 24.0615C0.137377 23.8535 0.0978887 23.6315 0.102398 23.4082V1.73389C0.0978887 1.51055 0.137377 1.28861 0.218731 1.08057C0.300085 0.87252 0.421702 0.682523 0.576519 0.521484C0.731335 0.360445 0.916394 0.231575 1.12107 0.14209C1.32576 0.052605 1.54604 0.00429082 1.76939 0Z" fill="url(#paint0_linear)"/>
<path d="M30.0743 17.2261L29.8224 15.9312H27.0884L26.6394 17.2261H24.3973L27.6044 9.16113C27.679 8.96114 27.8156 8.79011 27.9943 8.67334C28.1729 8.55657 28.3843 8.50025 28.5974 8.51221H30.3264L32.0483 17.2271L30.0743 17.2261ZM28.8384 10.8818L27.7084 14.1431H29.4744L28.8384 10.8818ZM21.5514 10.9961C21.5514 11.9481 24.5514 12.1518 24.5514 14.3408C24.5514 16.4488 22.3364 17.2241 20.8694 17.2241C20.0356 17.2379 19.2083 17.0756 18.4414 16.748L18.7614 14.8579C19.6414 15.5779 22.3104 15.7831 22.3104 14.6401C22.3104 13.4971 19.3354 13.4699 19.3354 11.2939C19.3354 8.98195 21.8694 8.50586 22.9354 8.50586C23.5957 8.52279 24.2488 8.64692 24.8694 8.87305L24.5624 10.6821C23.6444 10.1701 21.5494 10.048 21.5494 11L21.5514 10.9961ZM14.9674 17.2261L16.3114 8.51074H18.4624L17.1184 17.2261H14.9674ZM9.81042 17.2261L7.94434 9.66406C8.27399 9.86996 8.5885 10.0992 8.88538 10.3501C9.78239 11.1177 10.4649 12.1046 10.8663 13.2148L11.1094 14.5059L13.1604 8.51221H15.4753L12.0533 17.2271L9.81042 17.2261ZM6.01636 8.75L5.91638 8.72021L6.01636 8.75ZM5.79639 8.68506L5.74841 8.67188L5.79639 8.68506ZM6.32544 8.85498L6.19739 8.81006L6.32544 8.85498ZM7.81641 9.58008C7.74974 9.53874 7.683 9.49894 7.61633 9.46094C7.68033 9.50494 7.74633 9.54296 7.81433 9.58496L7.81641 9.58008ZM7.30237 9.29004C7.24437 9.26004 7.18444 9.2282 7.12744 9.2002C7.18244 9.2332 7.24142 9.26492 7.30042 9.29492L7.30237 9.29004ZM6.76733 9.0332L6.64941 8.98193L6.76733 9.0332Z" fill="#494CA3"/>
<path d="M10.8634 13.219L10.1394 9.30102C10.1014 9.06487 9.97459 8.85217 9.78503 8.70629C9.59548 8.56041 9.3574 8.49267 9.11938 8.51635H5.72937L5.68933 8.66332C6.86639 8.98071 7.95721 9.55818 8.88135 10.3533C9.77887 11.121 10.4619 12.1082 10.8634 13.219Z" fill="#FFC000"/>
<defs>
<linearGradient id="paint0_linear" x1="19.2694" y1="25.1421" x2="19.2694" y2="0" gradientUnits="userSpaceOnUse">
<stop stop-color="#E59703"/>
<stop offset="0.231" stop-color="#E59703"/>
<stop offset="0.234" stop-color="white"/>
<stop offset="0.761" stop-color="white"/>
<stop offset="0.766" stop-color="#5457BB"/>
<stop offset="1" stop-color="#5457BB"/>
</linearGradient>
</defs>
</svg>
