<svg width="39" height="26" viewBox="0 0 39 26" fill="none" xmlns="http://www.w3.org/2000/svg">
<path d="M1.66636 0.197754H36.6484C36.8717 0.202174 37.0918 0.250789 37.2964 0.340332C37.5009 0.429875 37.6858 0.558701 37.8406 0.719727C37.9953 0.880752 38.1168 1.07083 38.1981 1.27881C38.2794 1.48679 38.3188 1.70887 38.3143 1.93213V23.6079C38.3232 24.0586 38.1526 24.4943 37.8402 24.8193C37.5278 25.1443 37.0991 25.3319 36.6484 25.3408H1.66636C1.21564 25.3319 0.786894 25.1443 0.474468 24.8193C0.162042 24.4943 -0.00849293 24.0586 0.000346514 23.6079V1.93213C-0.00416333 1.70887 0.0353878 1.48679 0.11668 1.27881C0.197971 1.07083 0.31939 0.880752 0.474101 0.719727C0.628812 0.558701 0.813726 0.429875 1.01829 0.340332C1.22286 0.250789 1.4431 0.202174 1.66636 0.197754Z" fill="#353A40"/>
<path d="M22.6893 16.7621C22.425 16.6277 22.2075 16.416 22.0654 16.1556C21.895 15.837 21.8122 15.4792 21.8254 15.1181C21.8108 14.8719 21.845 14.6252 21.9264 14.3925C22.0078 14.1597 22.1346 13.9455 22.2994 13.7621C22.4747 13.5952 22.6823 13.466 22.9095 13.3827C23.1368 13.2994 23.3788 13.2635 23.6204 13.2777C23.8638 13.2621 24.1079 13.2963 24.3376 13.3783C24.5674 13.4603 24.778 13.5885 24.9564 13.7548C25.1197 13.9347 25.2453 14.1456 25.3258 14.3749C25.4064 14.6042 25.4403 14.8472 25.4254 15.0897C25.4403 15.4414 25.3717 15.7916 25.2253 16.1117C25.0932 16.3723 24.8874 16.5883 24.6334 16.7328C24.336 16.8901 24.0026 16.9668 23.6664 16.955C23.3302 16.9671 22.9957 16.9011 22.6893 16.7621ZM23.0953 14.3451C22.9664 14.5834 22.8989 14.85 22.8989 15.121C22.8989 15.3919 22.9664 15.6585 23.0953 15.8969C23.1633 15.9707 23.246 16.0294 23.3379 16.0697C23.4298 16.11 23.529 16.1312 23.6294 16.1312C23.7298 16.1312 23.829 16.11 23.9209 16.0697C24.0128 16.0294 24.0953 15.9707 24.1633 15.8969C24.3149 15.6496 24.3817 15.3594 24.3534 15.0707C24.3749 14.8101 24.3042 14.5504 24.1534 14.3368C24.0874 14.2603 24.0047 14.2001 23.9119 14.16C23.819 14.12 23.7184 14.1013 23.6174 14.1058C23.5179 14.1031 23.4191 14.123 23.3286 14.1644C23.2381 14.2059 23.1582 14.268 23.0953 14.3451ZM13.1833 16.9188C13.0091 16.9017 12.8395 16.8522 12.6833 16.7728C12.5418 16.6956 12.4168 16.5911 12.3154 16.4657C12.2116 16.3467 12.1336 16.2077 12.0864 16.057C12.0251 15.8627 11.9914 15.6606 11.9865 15.4569V13.3388H13.0574V15.5067C13.0526 15.5891 13.0641 15.672 13.0914 15.7499C13.1187 15.8278 13.1613 15.8994 13.2164 15.9608C13.3378 16.0651 13.4924 16.1224 13.6523 16.1224C13.8123 16.1224 13.967 16.0651 14.0884 15.9608C14.1435 15.8988 14.1859 15.8264 14.213 15.7479C14.2401 15.6695 14.2514 15.5866 14.2463 15.5038V13.3358H15.3174V15.454C15.3179 15.6582 15.2841 15.8611 15.2174 16.0541C15.1558 16.2377 15.0531 16.4047 14.9174 16.5429C14.7976 16.6734 14.6505 16.7757 14.4865 16.8427C14.2452 16.9266 13.9907 16.9668 13.7354 16.9608C13.551 16.9571 13.3671 16.9428 13.1844 16.9179L13.1833 16.9188ZM28.3224 16.8949L27.0223 14.9428V16.8949H26.0123V13.3397H27.0123L28.3214 15.306V13.3397H29.3334V16.8949H28.3224ZM18.3444 16.8949L17.0444 14.9428V16.8949H16.0344V13.3397H17.0344L18.3424 15.306V13.3397H19.3544V16.8949H18.3444ZM20.1144 16.8856V13.3368H21.1943V16.8856H20.1144ZM11.9094 11.9047C11.6779 11.6648 11.5404 11.3499 11.5223 11.017L12.5444 10.952C12.5551 11.0907 12.6012 11.224 12.6783 11.3397C12.7341 11.4114 12.8063 11.4685 12.8888 11.5062C12.9713 11.544 13.0617 11.5617 13.1523 11.557C13.2804 11.5655 13.4071 11.5256 13.5074 11.4457C13.545 11.4159 13.5754 11.3783 13.5966 11.3353C13.6177 11.2923 13.6289 11.2451 13.6295 11.1972C13.6301 11.1492 13.6199 11.102 13.5999 11.0585C13.5798 11.015 13.5503 10.9763 13.5134 10.9457C13.3472 10.838 13.1595 10.7676 12.9634 10.7396C12.5979 10.6784 12.2526 10.5306 11.9564 10.308C11.8588 10.223 11.7811 10.117 11.7292 9.99842C11.6774 9.87979 11.6525 9.75137 11.6564 9.62196C11.6569 9.43824 11.7107 9.25854 11.8114 9.10487C11.9253 8.93344 12.088 8.80024 12.2784 8.72205C12.5509 8.6177 12.8419 8.57023 13.1334 8.58289C13.4903 8.55908 13.8457 8.64783 14.1494 8.8368C14.2719 8.93374 14.3724 9.05591 14.4441 9.19471C14.5158 9.33351 14.5572 9.48595 14.5654 9.64198L13.5533 9.70301C13.5401 9.57013 13.4799 9.44623 13.3834 9.35389C13.2813 9.27596 13.1546 9.23739 13.0264 9.245C12.9257 9.23767 12.8258 9.26644 12.7444 9.32606C12.7144 9.35001 12.6903 9.38028 12.6738 9.41493C12.6574 9.44957 12.6491 9.48741 12.6494 9.52577C12.6502 9.55571 12.6577 9.58505 12.6714 9.6117C12.6851 9.63836 12.7045 9.66195 12.7284 9.68006C12.8376 9.7496 12.9609 9.79389 13.0894 9.80994C13.4369 9.8743 13.7757 9.97967 14.0984 10.1239C14.2804 10.2111 14.434 10.3481 14.5414 10.5189C14.6342 10.6781 14.682 10.8595 14.6794 11.0438C14.6807 11.2677 14.6163 11.4869 14.4944 11.6747C14.369 11.8685 14.1891 12.0208 13.9774 12.1127C13.7121 12.2198 13.4273 12.2709 13.1414 12.2621C12.6997 12.3082 12.2576 12.1794 11.9094 11.9037V11.9047ZM28.3234 12.1947L27.0234 10.2421V12.1947H26.0134V8.64002H27.0134L28.3224 10.6068V8.64002H29.3344V12.1947H28.3234ZM24.4484 12.1947L23.8744 11.1078C23.8282 11.0047 23.762 10.912 23.6794 10.8348C23.6025 10.7798 23.51 10.7507 23.4154 10.7518H23.3204V12.1947H22.2413V8.64002H24.0304C24.287 8.62995 24.5437 8.65921 24.7914 8.72694C24.9653 8.78377 25.1151 8.89731 25.2164 9.04969C25.3276 9.22077 25.3838 9.42193 25.3774 9.62586C25.3819 9.80403 25.3395 9.98048 25.2544 10.1371C25.172 10.2795 25.0551 10.3985 24.9144 10.4838C24.797 10.5505 24.6697 10.5985 24.5374 10.6259C24.6366 10.6552 24.731 10.6989 24.8174 10.7557C24.8817 10.8114 24.9391 10.8745 24.9884 10.9437C25.0455 11.0122 25.096 11.0861 25.1394 11.1639L25.6594 12.1947H24.4484ZM23.3214 10.079H23.7744C23.8704 10.0721 23.9654 10.0557 24.0583 10.0306C24.128 10.0163 24.1901 9.97696 24.2324 9.91981C24.2775 9.86031 24.3014 9.78743 24.3004 9.71278C24.3035 9.66342 24.2955 9.6141 24.277 9.56825C24.2585 9.52239 24.2299 9.48101 24.1934 9.44764C24.0737 9.3741 23.9331 9.34229 23.7933 9.35682H23.3214V10.079ZM18.7214 12.1947V8.64002H21.5994V9.39881H19.7994V9.96375H21.4714V10.6898H19.7994V11.39H21.6544V12.1947H18.7214ZM16.0693 12.1947V9.51795H14.9744V8.64002H18.2394V9.51795H17.1394V12.1947H16.0693ZM8.20435 12.1947V8.64002H11.0824V9.39881H9.28235V9.96375H10.9534V10.6898H9.27441V11.39H11.1274V12.1947H8.20435ZM6.03735 12.1947L5.42834 9.95594L4.82141 12.1947H3.76843L2.99536 8.64002H4.01538L4.38245 10.6298L4.92041 8.64002H5.9364L6.47534 10.6278L6.84241 8.64002H7.85742L7.09143 12.1947H6.03735Z" fill="#ECD345"/>
<path d="M34.1244 16.957V8.57715H35.3243V16.957H34.1244ZM31.1344 16.957V8.57715H32.3344V16.957H31.1344Z" fill="#ECD345"/>
</svg>
